<svg xmlns="http://www.w3.org/2000/svg" viewBox="0 0 24 24" width="80" height="80" fill="none" stroke-width="1.8" stroke-linecap="round" stroke-linejoin="round"><circle cx="12" cy="12" r="9" fill="none" stroke="#000000"/><g stroke="#000000"><path d="M7.5 10.5q1.5-2 3 0M13.5 10.5q1.5-2 3 0"/><path d="M7 13.5h10a5 5 0 0 1-10 0z" fill="#000000"/></g><path d="M4.5 10.5c-1 1.3-1.5 2.2-1.5 2.8a1.5 1.5 0 0 0 3 0c0-.6-.5-1.5-1.5-2.8z" fill="#000000" stroke="#000000"/><path d="M19.5 10.5c-1 1.3-1.5 2.2-1.5 2.8a1.5 1.5 0 0 0 3 0c0-.6-.5-1.5-1.5-2.8z" fill="#000000" stroke="#000000"/></svg>
